ExploreSansVariable_NormalSerif.ufo
<glyph name="exclam" format="2">
  <advance width="255"/>
  <unicode hex="0021"/>
  <outline>
    <contour>
      <point x="79" y="716" type="line"/>
      <point x="179" y="716" type="line"/>
      <point x="166" y="207" type="line"/>
      <point x="88" y="207" type="line"/>
    </contour>
    <contour>
      <point x="127" y="119" type="curve" smooth="yes"/>
      <point x="168" y="119"/>
      <point x="190" y="86"/>
      <point x="190" y="55" type="curve" smooth="yes"/>
      <point x="190" y="22"/>
      <point x="167" y="-7"/>
      <point x="127" y="-7" type="curve" smooth="yes"/>
      <point x="87" y="-7"/>
      <point x="64" y="22"/>
      <point x="64" y="55" type="curve" smooth="yes"/>
      <point x="64" y="86"/>
      <point x="86" y="119"/>
    </contour>
  </outline>
</glyph>
<glyph name="dollar" format="2">
  <advance width="616"/>
  <unicode hex="0024"/>
  <outline>
    <contour>
      <point x="283" y="864" type="line"/>
      <point x="340" y="864" type="line"/>
      <point x="340" y="-138" type="line"/>
      <point x="283" y="-138" type="line"/>
    </contour>
    <component base="S" xOffset="13" yOffset="1"/>
  </outline>
</glyph>
<glyph name="percent" format="2">
  <advance width="768"/>
  <unicode hex="0025"/>
  <outline>
    <contour>
      <point x="552" y="708" type="line"/>
      <point x="630" y="708" type="line"/>
      <point x="217" y="0" type="line"/>
      <point x="138" y="0" type="line"/>
    </contour>
    <contour>
      <point x="557" y="322" type="curve" smooth="yes"/>
      <point x="647" y="322"/>
      <point x="706" y="256"/>
      <point x="706" y="157" type="curve" smooth="yes"/>
      <point x="706" y="58"/>
      <point x="647" y="-8"/>
      <point x="557" y="-8" type="curve" smooth="yes"/>
      <point x="467" y="-8"/>
      <point x="408" y="58"/>
      <point x="408" y="157" type="curve" smooth="yes"/>
      <point x="408" y="256"/>
      <point x="467" y="322"/>
    </contour>
    <contour>
      <point x="556" y="268" type="curve" smooth="yes"/>
      <point x="511" y="268"/>
      <point x="488" y="220"/>
      <point x="488" y="155" type="curve" smooth="yes"/>
      <point x="488" y="94"/>
      <point x="511" y="46"/>
      <point x="557" y="46" type="curve" smooth="yes"/>
      <point x="603" y="46"/>
      <point x="626" y="94"/>
      <point x="626" y="155" type="curve" smooth="yes"/>
      <point x="626" y="183"/>
      <point x="620" y="268"/>
    </contour>
    <contour>
      <point x="210" y="662" type="curve" smooth="yes"/>
      <point x="165" y="662"/>
      <point x="142" y="613"/>
      <point x="142" y="549" type="curve" smooth="yes"/>
      <point x="142" y="488"/>
      <point x="165" y="439"/>
      <point x="211" y="439" type="curve" smooth="yes"/>
      <point x="257" y="439"/>
      <point x="280" y="488"/>
      <point x="280" y="550" type="curve" smooth="yes"/>
      <point x="280" y="581"/>
      <point x="272" y="662"/>
    </contour>
    <contour>
      <point x="211" y="716" type="curve" smooth="yes"/>
      <point x="301" y="716"/>
      <point x="360" y="650"/>
      <point x="360" y="551" type="curve" smooth="yes"/>
      <point x="360" y="453"/>
      <point x="302" y="385"/>
      <point x="211" y="385" type="curve" smooth="yes"/>
      <point x="120" y="385"/>
      <point x="62" y="453"/>
      <point x="62" y="551" type="curve" smooth="yes"/>
      <point x="62" y="650"/>
      <point x="121" y="716"/>
    </contour>
  </outline>
</glyph>
<glyph name="ampersand" format="2">
  <advance width="731"/>
  <unicode hex="0026"/>
  <outline>
    <contour>
      <point x="286" y="436" type="curve"/>
      <point x="289" y="380" type="line"/>
      <point x="195" y="380"/>
      <point x="128" y="326"/>
      <point x="128" y="216" type="curve" smooth="yes"/>
      <point x="128" y="113"/>
      <point x="199" y="48"/>
      <point x="307" y="48" type="curve" smooth="yes"/>
      <point x="455" y="48"/>
      <point x="543" y="188"/>
      <point x="543" y="361" type="curve"/>
      <point x="607" y="349" type="line"/>
      <point x="607" y="173"/>
      <point x="518" y="-8"/>
      <point x="302" y="-8" type="curve" smooth="yes"/>
      <point x="140" y="-8"/>
      <point x="48" y="86"/>
      <point x="48" y="214" type="curve" smooth="yes"/>
      <point x="48" y="362"/>
      <point x="170" y="436"/>
    </contour>
    <contour>
      <point x="464" y="417" type="line"/>
      <point x="677" y="388" type="line"/>
      <point x="677" y="333" type="line"/>
      <point x="464" y="365" type="line"/>
    </contour>
    <contour>
      <point x="364" y="716" type="curve" smooth="yes"/>
      <point x="408" y="716"/>
      <point x="453" y="709"/>
      <point x="496" y="681" type="curve"/>
      <point x="496" y="573" type="line"/>
      <point x="416" y="573" type="line"/>
      <point x="416" y="654.7796020507812" type="line"/>
      <point x="399.1672668457031" y="658.7561645507812"/>
      <point x="382.4543151855469" y="660"/>
      <point x="364" y="660" type="curve" smooth="yes"/>
      <point x="278" y="660"/>
      <point x="250" y="605"/>
      <point x="250" y="565" type="curve" smooth="yes"/>
      <point x="250" y="502"/>
      <point x="270" y="476"/>
      <point x="303" y="434" type="curve" smooth="yes"/>
      <point x="614" y="56" type="line"/>
      <point x="683" y="56" type="line"/>
      <point x="683" y="0" type="line"/>
      <point x="559" y="0" type="line"/>
      <point x="238" y="392" type="line" smooth="yes"/>
      <point x="192" y="448"/>
      <point x="170" y="494"/>
      <point x="170" y="559" type="curve" smooth="yes"/>
      <point x="170" y="631"/>
      <point x="219" y="716"/>
    </contour>
  </outline>
</glyph>
<glyph name="parenleft" format="2">
  <advance width="247"/>
  <unicode hex="0028"/>
  <outline>
    <contour>
      <point x="197" y="800" type="curve"/>
      <point x="215" y="781" type="line"/>
      <point x="192" y="755"/>
      <point x="102" y="646"/>
      <point x="102" y="368" type="curve" smooth="yes"/>
      <point x="102" y="228"/>
      <point x="126" y="79"/>
      <point x="214" y="-45" type="curve"/>
      <point x="191" y="-64" type="line"/>
      <point x="81" y="25"/>
      <point x="24" y="197"/>
      <point x="24" y="368" type="curve" smooth="yes"/>
      <point x="24" y="563"/>
      <point x="82" y="707"/>
    </contour>
  </outline>
</glyph>
<glyph name="parenright" format="2">
  <advance width="247"/>
  <unicode hex="0029"/>
  <outline>
    <contour>
      <point x="50" y="800" type="curve"/>
      <point x="32" y="781" type="line"/>
      <point x="55" y="755"/>
      <point x="145" y="646"/>
      <point x="145" y="368" type="curve" smooth="yes"/>
      <point x="145" y="228"/>
      <point x="121" y="79"/>
      <point x="33" y="-45" type="curve"/>
      <point x="56" y="-64" type="line"/>
      <point x="166" y="25"/>
      <point x="223" y="197"/>
      <point x="223" y="368" type="curve" smooth="yes"/>
      <point x="223" y="563"/>
      <point x="165" y="707"/>
    </contour>
  </outline>
</glyph>
<glyph name="asterisk" format="2">
  <advance width="475"/>
  <unicode hex="002A"/>
  <outline>
    <contour>
      <point x="202" y="806" type="line"/>
      <point x="272" y="806" type="line"/>
      <point x="272" y="774" type="line"/>
      <point x="246" y="628" type="line"/>
      <point x="388" y="705" type="line"/>
      <point x="406" y="710" type="line"/>
      <point x="427" y="642" type="line"/>
      <point x="414" y="638" type="line"/>
      <point x="252" y="612" type="line"/>
      <point x="364" y="505" type="line"/>
      <point x="374" y="490" type="line"/>
      <point x="317" y="450" type="line"/>
      <point x="307" y="465" type="line"/>
      <point x="237" y="603" type="line"/>
      <point x="168" y="465" type="line"/>
      <point x="157" y="450" type="line"/>
      <point x="100" y="490" type="line"/>
      <point x="110" y="505" type="line"/>
      <point x="222" y="612" type="line"/>
      <point x="60" y="638" type="line"/>
      <point x="48" y="642" type="line"/>
      <point x="68" y="710" type="line"/>
      <point x="87" y="705" type="line"/>
      <point x="228" y="628" type="line"/>
      <point x="202" y="774" type="line"/>
    </contour>
  </outline>
</glyph>
<glyph name="comma" format="2">
  <advance width="163"/>
  <unicode hex="002C"/>
  <outline>
    <contour>
      <point x="78" y="43" type="line"/>
      <point x="20" y="54" type="line"/>
      <point x="33" y="122" type="line"/>
      <point x="143" y="97" type="line"/>
      <point x="94" y="-143" type="line"/>
      <point x="49" y="-143" type="line"/>
    </contour>
  </outline>
</glyph>
<glyph name="period" format="2">
  <advance width="206"/>
  <unicode hex="002E"/>
  <outline>
    <contour>
      <point x="104" y="101" type="curve" smooth="yes"/>
      <point x="135" y="101"/>
      <point x="158" y="77"/>
      <point x="158" y="45" type="curve" smooth="yes"/>
      <point x="158" y="14"/>
      <point x="135" y="-9"/>
      <point x="104" y="-9" type="curve" smooth="yes"/>
      <point x="72" y="-9"/>
      <point x="48" y="14"/>
      <point x="48" y="45" type="curve" smooth="yes"/>
      <point x="48" y="77"/>
      <point x="72" y="101"/>
    </contour>
  </outline>
</glyph>
<glyph name="one" format="2">
  <advance width="550"/>
  <unicode hex="0031"/>
  <outline>
    <contour>
      <point x="254" y="655" type="curve"/>
      <point x="254" y="44" type="line"/>
      <point x="74" y="44" type="line"/>
      <point x="74" y="0" type="line"/>
      <point x="484" y="0" type="line"/>
      <point x="484" y="44" type="line"/>
      <point x="334" y="44" type="line"/>
      <point x="334" y="708" type="line"/>
      <point x="262" y="708" type="line"/>
      <point x="245" y="694"/>
      <point x="141" y="619"/>
      <point x="71" y="607" type="curve"/>
      <point x="71" y="547" type="line"/>
      <point x="157" y="564"/>
      <point x="212" y="613"/>
    </contour>
  </outline>
</glyph>
<glyph name="two" format="2">
  <advance width="550"/>
  <unicode hex="0032"/>
  <outline>
    <contour>
      <point x="67" y="547" type="line" smooth="yes"/>
      <point x="70" y="528"/>
      <point x="80" y="517"/>
      <point x="97" y="515" type="curve" smooth="yes"/>
      <point x="107" y="514" type="line"/>
      <point x="109" y="644" type="line"/>
      <point x="143" y="672"/>
      <point x="176" y="680"/>
      <point x="228" y="680" type="curve" smooth="yes"/>
      <point x="350" y="680"/>
      <point x="399" y="600"/>
      <point x="399" y="524" type="curve" smooth="yes"/>
      <point x="399" y="453"/>
      <point x="384" y="397"/>
      <point x="300" y="304" type="curve" smooth="yes"/>
      <point x="62" y="44" type="line"/>
      <point x="62" y="0" type="line"/>
      <point x="484" y="0" type="line"/>
      <point x="484" y="71" type="line"/>
      <point x="140" y="71" type="line"/>
      <point x="346" y="298" type="line" smooth="yes"/>
      <point x="427" y="386"/>
      <point x="479" y="452"/>
      <point x="479" y="528" type="curve" smooth="yes"/>
      <point x="479" y="644"/>
      <point x="388" y="716"/>
      <point x="241" y="716" type="curve" smooth="yes"/>
      <point x="180" y="716"/>
      <point x="108" y="695"/>
      <point x="48" y="650" type="curve"/>
    </contour>
  </outline>
</glyph>
<glyph name="three" format="2">
  <advance width="550"/>
  <unicode hex="0033"/>
  <outline>
    <contour>
      <point x="72" y="708" type="line"/>
      <point x="467" y="708" type="line"/>
      <point x="467" y="653" type="line"/>
      <point x="275" y="432" type="line"/>
      <point x="420" y="426"/>
      <point x="508" y="348"/>
      <point x="508" y="220" type="curve" smooth="yes"/>
      <point x="508" y="91"/>
      <point x="424" y="-8"/>
      <point x="261" y="-8" type="curve" smooth="yes"/>
      <point x="138" y="-8"/>
      <point x="102" y="20"/>
      <point x="36" y="70" type="curve"/>
      <point x="50" y="127" type="line"/>
      <point x="105" y="69"/>
      <point x="165" y="48"/>
      <point x="255" y="48" type="curve" smooth="yes"/>
      <point x="376" y="48"/>
      <point x="428" y="119"/>
      <point x="428" y="222" type="curve" smooth="yes"/>
      <point x="428" y="316"/>
      <point x="371" y="379"/>
      <point x="263" y="379" type="curve" smooth="yes"/>
      <point x="204" y="379" type="line"/>
      <point x="195" y="411" type="line"/>
      <point x="391" y="644" type="line"/>
      <point x="117" y="644" type="line"/>
      <point x="117" y="549" type="line"/>
      <point x="72" y="549" type="line"/>
    </contour>
  </outline>
</glyph>
<glyph name="four" format="2">
  <advance width="550"/>
  <unicode hex="0034"/>
  <outline>
    <contour>
      <point x="306" y="708" type="line"/>
      <point x="389" y="708" type="line"/>
      <point x="132" y="234" type="line"/>
      <point x="409" y="234" type="line"/>
      <point x="409" y="484" type="line"/>
      <point x="489" y="484" type="line"/>
      <point x="489" y="0" type="line"/>
      <point x="409" y="0" type="line"/>
      <point x="409" y="164" type="line"/>
      <point x="52" y="164" type="line"/>
      <point x="52" y="234" type="line"/>
    </contour>
  </outline>
</glyph>
<glyph name="five" format="2">
  <advance width="550"/>
  <unicode hex="0035"/>
  <outline>
    <contour>
      <point x="86" y="708" type="line"/>
      <point x="460" y="708" type="line"/>
      <point x="460" y="649" type="line"/>
      <point x="161" y="672" type="line"/>
      <point x="154" y="374" type="line"/>
      <point x="189" y="424"/>
      <point x="239" y="441"/>
      <point x="301" y="441" type="curve" smooth="yes"/>
      <point x="423" y="441"/>
      <point x="497" y="365"/>
      <point x="497" y="225" type="curve" smooth="yes"/>
      <point x="497" y="81"/>
      <point x="404" y="-8"/>
      <point x="253" y="-8" type="curve" smooth="yes"/>
      <point x="174" y="-8"/>
      <point x="102" y="17"/>
      <point x="39" y="66" type="curve"/>
      <point x="57" y="97" type="line"/>
      <point x="117" y="52"/>
      <point x="193" y="28"/>
      <point x="253" y="28" type="curve" smooth="yes"/>
      <point x="361" y="28"/>
      <point x="421" y="112"/>
      <point x="421" y="221" type="curve" smooth="yes"/>
      <point x="421" y="333"/>
      <point x="372" y="401"/>
      <point x="273" y="401" type="curve" smooth="yes"/>
      <point x="214" y="401"/>
      <point x="172" y="363"/>
      <point x="153" y="334" type="curve"/>
      <point x="78" y="334" type="line"/>
    </contour>
  </outline>
</glyph>
<glyph name="six" format="2">
  <advance width="550"/>
  <unicode hex="0036"/>
  <outline>
    <contour>
      <point x="374" y="719" type="curve"/>
      <point x="379" y="667" type="line"/>
      <point x="255" y="639"/>
      <point x="124" y="514"/>
      <point x="124" y="339" type="curve"/>
      <point x="141" y="401"/>
      <point x="211" y="450"/>
      <point x="290" y="450" type="curve" smooth="yes"/>
      <point x="425" y="450"/>
      <point x="510" y="366"/>
      <point x="510" y="223" type="curve" smooth="yes"/>
      <point x="510" y="88"/>
      <point x="417" y="-8"/>
      <point x="280" y="-8" type="curve" smooth="yes"/>
      <point x="122" y="-8"/>
      <point x="46" y="84"/>
      <point x="46" y="308" type="curve" smooth="yes"/>
      <point x="46" y="536"/>
      <point x="201" y="679"/>
    </contour>
    <contour>
      <point x="278" y="394" type="curve" smooth="yes"/>
      <point x="180" y="394"/>
      <point x="126" y="331"/>
      <point x="126" y="232" type="curve" smooth="yes"/>
      <point x="126" y="110"/>
      <point x="174" y="48"/>
      <point x="278" y="48" type="curve" smooth="yes"/>
      <point x="376" y="48"/>
      <point x="430" y="117"/>
      <point x="430" y="223" type="curve" smooth="yes"/>
      <point x="430" y="327"/>
      <point x="378" y="394"/>
    </contour>
  </outline>
</glyph>
<glyph name="seven" format="2">
  <advance width="550"/>
  <unicode hex="0037"/>
  <outline>
    <contour>
      <point x="44" y="708" type="line"/>
      <point x="492" y="708" type="line"/>
      <point x="492" y="648" type="line"/>
      <point x="235" y="0" type="line"/>
      <point x="150" y="0" type="line"/>
      <point x="412" y="644" type="line"/>
      <point x="44" y="644" type="line"/>
    </contour>
  </outline>
</glyph>
<glyph name="eight" format="2">
  <advance width="550"/>
  <unicode hex="0038"/>
  <outline>
    <contour>
      <point x="274" y="716" type="curve" smooth="yes"/>
      <point x="407" y="716"/>
      <point x="488" y="641"/>
      <point x="488" y="536" type="curve" smooth="yes"/>
      <point x="488" y="459"/>
      <point x="445" y="396"/>
      <point x="382" y="370" type="curve"/>
      <point x="456" y="352"/>
      <point x="504" y="278"/>
      <point x="504" y="191" type="curve" smooth="yes"/>
      <point x="504" y="65"/>
      <point x="416" y="-7"/>
      <point x="274" y="-7" type="curve" smooth="yes"/>
      <point x="133" y="-7"/>
      <point x="46" y="63"/>
      <point x="46" y="189" type="curve" smooth="yes"/>
      <point x="46" y="289"/>
      <point x="87" y="341"/>
      <point x="166" y="370" type="curve"/>
      <point x="97" y="397"/>
      <point x="62" y="449"/>
      <point x="62" y="536" type="curve" smooth="yes"/>
      <point x="62" y="643"/>
      <point x="141" y="716"/>
    </contour>
    <contour>
      <point x="274" y="660" type="curve" smooth="yes"/>
      <point x="190" y="660"/>
      <point x="142" y="614"/>
      <point x="142" y="531" type="curve" smooth="yes"/>
      <point x="142" y="434"/>
      <point x="191" y="392"/>
      <point x="274" y="392" type="curve" smooth="yes"/>
      <point x="359" y="392"/>
      <point x="408" y="434"/>
      <point x="408" y="531" type="curve" smooth="yes"/>
      <point x="408" y="614"/>
      <point x="359" y="660"/>
    </contour>
    <contour>
      <point x="274" y="341" type="curve" smooth="yes"/>
      <point x="184" y="341"/>
      <point x="126" y="276"/>
      <point x="126" y="191" type="curve" smooth="yes"/>
      <point x="126" y="98"/>
      <point x="175" y="49"/>
      <point x="274" y="49" type="curve" smooth="yes"/>
      <point x="374" y="49"/>
      <point x="424" y="98"/>
      <point x="424" y="191" type="curve" smooth="yes"/>
      <point x="424" y="278"/>
      <point x="367" y="341"/>
    </contour>
  </outline>
</glyph>
<glyph name="A" format="2">
  <advance width="629"/>
  <unicode hex="0041"/>
  <anchor x="303" y="876" name="AccentCenter"/>
  <outline>
    <contour>
      <point x="358" y="708" type="line"/>
      <point x="582" y="36" type="line"/>
      <point x="619" y="36" type="line"/>
      <point x="619" y="0" type="line"/>
      <point x="458" y="0" type="line"/>
      <point x="458" y="36" type="line"/>
      <point x="505.9795837402344" y="36" type="line"/>
      <point x="457" y="196" type="line"/>
      <point x="147" y="196" type="line"/>
      <point x="93.12245178222656" y="36" type="line"/>
      <point x="131" y="36" type="line"/>
      <point x="131" y="0" type="line"/>
      <point x="10" y="0" type="line"/>
      <point x="10" y="36" type="line"/>
      <point x="46.47999954223633" y="36" type="line"/>
      <point x="268" y="675" type="line"/>
      <point x="261" y="708" type="line"/>
    </contour>
    <contour>
      <point x="307" y="672" type="line"/>
      <point x="161" y="232" type="line"/>
      <point x="446" y="232" type="line"/>
      <point x="312" y="672" type="line"/>
    </contour>
  </outline>
</glyph>
<glyph name="B" format="2">
  <advance width="631"/>
  <unicode hex="0042"/>
  <outline>
    <contour>
      <point x="41" y="708" type="line"/>
      <point x="362" y="708" type="line" smooth="yes"/>
      <point x="494" y="708"/>
      <point x="575" y="641"/>
      <point x="575" y="534" type="curve" smooth="yes"/>
      <point x="575" y="454"/>
      <point x="540" y="409"/>
      <point x="471" y="378" type="curve"/>
      <point x="554" y="357"/>
      <point x="607" y="298"/>
      <point x="607" y="197" type="curve" smooth="yes"/>
      <point x="607" y="74"/>
      <point x="523" y="0"/>
      <point x="383" y="0" type="curve" smooth="yes"/>
      <point x="38" y="0" type="line"/>
      <point x="38" y="56" type="line"/>
      <point x="113" y="56" type="line"/>
      <point x="113" y="652" type="line"/>
      <point x="41" y="652" type="line"/>
    </contour>
    <contour>
      <point x="189" y="652" type="line"/>
      <point x="189" y="405" type="line"/>
      <point x="366" y="405" type="line" smooth="yes"/>
      <point x="456" y="405"/>
      <point x="497" y="459"/>
      <point x="497" y="540" type="curve" smooth="yes"/>
      <point x="497" y="616"/>
      <point x="451" y="652"/>
      <point x="360" y="652" type="curve" smooth="yes"/>
    </contour>
    <contour>
      <point x="189" y="351" type="line"/>
      <point x="189" y="56" type="line"/>
      <point x="383" y="56" type="line" smooth="yes"/>
      <point x="474" y="56"/>
      <point x="527" y="101"/>
      <point x="527" y="202" type="curve" smooth="yes"/>
      <point x="527" y="294"/>
      <point x="485" y="351"/>
      <point x="376" y="351" type="curve" smooth="yes"/>
    </contour>
  </outline>
</glyph>
<glyph name="C" format="2">
  <advance width="605"/>
  <unicode hex="0043"/>
  <outline>
    <contour>
      <point x="354" y="716" type="curve" smooth="yes"/>
      <point x="429" y="716"/>
      <point x="503" y="690"/>
      <point x="556" y="646" type="curve"/>
      <point x="556" y="646"/>
      <point x="547" y="584"/>
      <point x="543" y="558" type="curve" smooth="yes"/>
      <point x="540" y="542"/>
      <point x="531" y="535"/>
      <point x="517" y="535" type="curve" smooth="yes"/>
      <point x="504" y="535" type="line"/>
      <point x="491.72894287109375" y="637.009521484375" type="line"/>
      <point x="458" y="666"/>
      <point x="401" y="680"/>
      <point x="354" y="680" type="curve" smooth="yes"/>
      <point x="231" y="680"/>
      <point x="128" y="586"/>
      <point x="128" y="352" type="curve" smooth="yes"/>
      <point x="128" y="150"/>
      <point x="198" y="28"/>
      <point x="352" y="28" type="curve" smooth="yes"/>
      <point x="427" y="28"/>
      <point x="501" y="56"/>
      <point x="542" y="93" type="curve"/>
      <point x="563" y="65" type="line"/>
      <point x="516" y="30"/>
      <point x="447" y="-8"/>
      <point x="352" y="-8" type="curve" smooth="yes"/>
      <point x="170" y="-8"/>
      <point x="48" y="125"/>
      <point x="48" y="352" type="curve" smooth="yes"/>
      <point x="48" y="608"/>
      <point x="206" y="716"/>
    </contour>
  </outline>
</glyph>
<glyph name="D" format="2">
  <advance width="649"/>
  <unicode hex="0044"/>
  <outline>
    <contour>
      <point x="32" y="708" type="line"/>
      <point x="292" y="708" type="line" smooth="yes"/>
      <point x="492" y="708"/>
      <point x="601" y="585"/>
      <point x="601" y="361" type="curve" smooth="yes"/>
      <point x="601" y="124"/>
      <point x="494" y="0"/>
      <point x="288" y="0" type="curve" smooth="yes"/>
      <point x="32" y="0" type="line"/>
      <point x="32" y="44" type="line"/>
      <point x="97" y="44" type="line"/>
      <point x="97" y="664" type="line"/>
      <point x="32" y="664" type="line"/>
    </contour>
    <contour>
      <point x="177" y="664" type="line"/>
      <point x="177" y="44" type="line"/>
      <point x="290" y="44" type="line" smooth="yes"/>
      <point x="445" y="44"/>
      <point x="522" y="163"/>
      <point x="522" y="361" type="curve" smooth="yes"/>
      <point x="522" y="546"/>
      <point x="443" y="664"/>
      <point x="292" y="664" type="curve" smooth="yes"/>
    </contour>
  </outline>
</glyph>
<glyph name="E" format="2">
  <advance width="561"/>
  <unicode hex="0045"/>
  <anchor x="282" y="880" name="AccentCenter"/>
  <outline>
    <contour>
      <point x="32" y="708" type="line"/>
      <point x="512" y="708" type="line"/>
      <point x="512" y="573" type="line"/>
      <point x="468" y="573" type="line"/>
      <point x="468" y="665" type="line"/>
      <point x="185" y="665" type="line"/>
      <point x="185" y="389" type="line"/>
      <point x="434" y="389" type="line"/>
      <point x="434" y="345" type="line"/>
      <point x="185" y="345" type="line"/>
      <point x="185" y="44" type="line"/>
      <point x="488" y="44" type="line"/>
      <point x="488" y="144" type="line"/>
      <point x="532" y="144" type="line"/>
      <point x="532" y="0" type="line"/>
      <point x="32" y="0" type="line"/>
      <point x="32" y="44" type="line"/>
      <point x="105" y="44" type="line"/>
      <point x="105" y="664" type="line"/>
      <point x="32" y="664" type="line"/>
    </contour>
  </outline>
</glyph>
<glyph name="F" format="2">
  <advance width="566"/>
  <unicode hex="0046"/>
  <outline>
    <contour>
      <point x="32" y="708" type="line"/>
      <point x="521" y="708" type="line"/>
      <point x="521" y="605" type="line"/>
      <point x="485" y="605" type="line"/>
      <point x="485" y="673" type="line"/>
      <point x="185" y="673" type="line"/>
      <point x="185" y="385" type="line"/>
      <point x="443" y="385" type="line"/>
      <point x="443" y="349" type="line"/>
      <point x="185" y="349" type="line"/>
      <point x="185" y="34" type="line"/>
      <point x="268" y="34" type="line"/>
      <point x="268" y="0" type="line"/>
      <point x="32" y="0" type="line"/>
      <point x="32" y="36" type="line"/>
      <point x="105" y="36" type="line"/>
      <point x="105" y="672" type="line"/>
      <point x="32" y="672" type="line"/>
    </contour>
  </outline>
</glyph>
<glyph name="G" format="2">
  <advance width="688"/>
  <unicode hex="0047"/>
  <outline>
    <contour>
      <point x="384" y="716" type="curve" smooth="yes"/>
      <point x="466" y="716"/>
      <point x="523" y="706"/>
      <point x="595" y="670" type="curve"/>
      <point x="595" y="538" type="line"/>
      <point x="526" y="538" type="line"/>
      <point x="526" y="641" type="line"/>
      <point x="483" y="656"/>
      <point x="454" y="664"/>
      <point x="396" y="664" type="curve" smooth="yes"/>
      <point x="260" y="664"/>
      <point x="134" y="553"/>
      <point x="134" y="352" type="curve" smooth="yes"/>
      <point x="134" y="146"/>
      <point x="247" y="45"/>
      <point x="400" y="45" type="curve" smooth="yes"/>
      <point x="440" y="45"/>
      <point x="467" y="50"/>
      <point x="511" y="59" type="curve"/>
      <point x="511" y="340" type="line"/>
      <point x="328" y="340" type="line"/>
      <point x="328" y="392" type="line"/>
      <point x="640" y="392" type="line"/>
      <point x="635" y="340" type="line"/>
      <point x="591" y="340" type="line"/>
      <point x="591" y="25" type="line"/>
      <point x="528" y="5"/>
      <point x="473" y="-8"/>
      <point x="393" y="-8" type="curve" smooth="yes"/>
      <point x="217" y="-8"/>
      <point x="56" y="91"/>
      <point x="56" y="352" type="curve" smooth="yes"/>
      <point x="56" y="571"/>
      <point x="192" y="716"/>
    </contour>
  </outline>
</glyph>
<glyph name="H" format="2">
  <advance width="689"/>
  <unicode hex="0048"/>
  <outline>
    <contour>
      <point x="260" y="708" type="line"/>
      <point x="260" y="672" type="line"/>
      <point x="186" y="672" type="line"/>
      <point x="186" y="397" type="line"/>
      <point x="503" y="397" type="line"/>
      <point x="503" y="672" type="line"/>
      <point x="429" y="672" type="line"/>
      <point x="429" y="708" type="line"/>
      <point x="657" y="708" type="line"/>
      <point x="657" y="672" type="line"/>
      <point x="583" y="672" type="line"/>
      <point x="583" y="36" type="line"/>
      <point x="657" y="36" type="line"/>
      <point x="657" y="0" type="line"/>
      <point x="429" y="0" type="line"/>
      <point x="429" y="36" type="line"/>
      <point x="503" y="36" type="line"/>
      <point x="503" y="361" type="line"/>
      <point x="186" y="361" type="line"/>
      <point x="186" y="36" type="line"/>
      <point x="260" y="36" type="line"/>
      <point x="260" y="0" type="line"/>
      <point x="32" y="0" type="line"/>
      <point x="32" y="36" type="line"/>
      <point x="106" y="36" type="line"/>
      <point x="106" y="672" type="line"/>
      <point x="32" y="672" type="line"/>
      <point x="32" y="708" type="line"/>
    </contour>
  </outline>
</glyph>
<glyph name="I" format="2">
  <advance width="272"/>
  <unicode hex="0049"/>
  <anchor x="130" y="880" name="AccentCenter"/>
  <outline>
    <contour>
      <point x="32" y="708" type="line"/>
      <point x="240" y="708" type="line"/>
      <point x="240" y="652" type="line"/>
      <point x="176" y="652" type="line"/>
      <point x="176" y="56" type="line"/>
      <point x="240" y="56" type="line"/>
      <point x="240" y="0" type="line"/>
      <point x="32" y="0" type="line"/>
      <point x="32" y="56" type="line"/>
      <point x="96" y="56" type="line"/>
      <point x="96" y="652" type="line"/>
      <point x="32" y="652" type="line"/>
    </contour>
  </outline>
</glyph>
<glyph name="J" format="2">
  <advance width="382"/>
  <unicode hex="004A"/>
  <outline>
    <contour>
      <point x="87" y="708" type="line"/>
      <point x="326" y="708" type="line"/>
      <point x="326" y="211" type="line" smooth="yes"/>
      <point x="326" y="135"/>
      <point x="303" y="-8"/>
      <point x="126" y="-8" type="curve" smooth="yes"/>
      <point x="95" y="-8"/>
      <point x="68" y="-5"/>
      <point x="40" y="0" type="curve"/>
      <point x="44" y="53" type="line"/>
      <point x="117" y="48" type="line" smooth="yes"/>
      <point x="189" y="44"/>
      <point x="246" y="71"/>
      <point x="246" y="208" type="curve" smooth="yes"/>
      <point x="246" y="652" type="line"/>
      <point x="87" y="652" type="line"/>
    </contour>
  </outline>
</glyph>
<glyph name="K" format="2">
  <advance width="623"/>
  <unicode hex="004B"/>
  <outline>
    <contour>
      <point x="32" y="708" type="line"/>
      <point x="260" y="708" type="line"/>
      <point x="260" y="652" type="line"/>
      <point x="186" y="652" type="line"/>
      <point x="186" y="339" type="line"/>
      <point x="475" y="652" type="line"/>
      <point x="410" y="652" type="line"/>
      <point x="410" y="708" type="line"/>
      <point x="603" y="708" type="line"/>
      <point x="603" y="652" type="line"/>
      <point x="551" y="652" type="line"/>
      <point x="270" y="348" type="line"/>
      <point x="538" y="56" type="line"/>
      <point x="603" y="56" type="line"/>
      <point x="603" y="0" type="line"/>
      <point x="472" y="0" type="line"/>
      <point x="189" y="331" type="line"/>
      <point x="186" y="331" type="line"/>
      <point x="186" y="56" type="line"/>
      <point x="260" y="56" type="line"/>
      <point x="260" y="0" type="line"/>
      <point x="32" y="0" type="line"/>
      <point x="32" y="56" type="line"/>
      <point x="106" y="56" type="line"/>
      <point x="106" y="652" type="line"/>
      <point x="32" y="652" type="line"/>
    </contour>
  </outline>
</glyph>
<glyph name="L" format="2">
  <advance width="510"/>
  <unicode hex="004C"/>
  <outline>
    <contour>
      <point x="32" y="708" type="line"/>
      <point x="260" y="708" type="line"/>
      <point x="260" y="664" type="line"/>
      <point x="186" y="664" type="line"/>
      <point x="186" y="44" type="line"/>
      <point x="466" y="44" type="line"/>
      <point x="466" y="134" type="line"/>
      <point x="510" y="134" type="line"/>
      <point x="510" y="0" type="line"/>
      <point x="32" y="0" type="line"/>
      <point x="32" y="44" type="line"/>
      <point x="106" y="44" type="line"/>
      <point x="106" y="664" type="line"/>
      <point x="32" y="664" type="line"/>
    </contour>
  </outline>
</glyph>
<glyph name="M" format="2">
  <advance width="759"/>
  <unicode hex="004D"/>
  <outline>
    <contour>
      <point x="32" y="708" type="line"/>
      <point x="181" y="708" type="line"/>
      <point x="384" y="274" type="line"/>
      <point x="574" y="708" type="line"/>
      <point x="727" y="708" type="line"/>
      <point x="727" y="652" type="line"/>
      <point x="663" y="652" type="line"/>
      <point x="663" y="56" type="line"/>
      <point x="727" y="56" type="line"/>
      <point x="727" y="0" type="line"/>
      <point x="509" y="0" type="line"/>
      <point x="509" y="56" type="line"/>
      <point x="583" y="56" type="line"/>
      <point x="583" y="608" type="line"/>
      <point x="396" y="192" type="line"/>
      <point x="336" y="192" type="line"/>
      <point x="152" y="569" type="line"/>
      <point x="152" y="56" type="line"/>
      <point x="226" y="56" type="line"/>
      <point x="226" y="0" type="line"/>
      <point x="32" y="0" type="line"/>
      <point x="32" y="56" type="line"/>
      <point x="96" y="56" type="line"/>
      <point x="96" y="652" type="line"/>
      <point x="32" y="652" type="line"/>
    </contour>
  </outline>
</glyph>
<glyph name="N" format="2">
  <advance width="677"/>
  <unicode hex="004E"/>
  <outline>
    <contour>
      <point x="32" y="708" type="line"/>
      <point x="183" y="708" type="line"/>
      <point x="521" y="161" type="line"/>
      <point x="521" y="652" type="line"/>
      <point x="453" y="652" type="line"/>
      <point x="453" y="708" type="line"/>
      <point x="645" y="708" type="line"/>
      <point x="645" y="652" type="line"/>
      <point x="577" y="652" type="line"/>
      <point x="577" y="13" type="line"/>
      <point x="525" y="0" type="line"/>
      <point x="156" y="573" type="line"/>
      <point x="156" y="56" type="line"/>
      <point x="224" y="56" type="line"/>
      <point x="224" y="0" type="line"/>
      <point x="32" y="0" type="line"/>
      <point x="32" y="56" type="line"/>
      <point x="100" y="56" type="line"/>
      <point x="100" y="652" type="line"/>
      <point x="32" y="652" type="line"/>
    </contour>
  </outline>
</glyph>
<glyph name="P" format="2">
  <advance width="606"/>
  <unicode hex="0050"/>
  <outline>
    <contour>
      <point x="32" y="708" type="line"/>
      <point x="319" y="708" type="line" smooth="yes"/>
      <point x="456" y="708"/>
      <point x="558" y="631"/>
      <point x="558" y="491" type="curve" smooth="yes"/>
      <point x="558" y="339"/>
      <point x="456" y="274"/>
      <point x="304" y="274" type="curve" smooth="yes"/>
      <point x="168" y="274" type="line"/>
      <point x="168" y="36" type="line"/>
      <point x="228" y="36" type="line"/>
      <point x="228" y="0" type="line"/>
      <point x="32" y="0" type="line"/>
      <point x="32" y="36" type="line"/>
      <point x="92" y="36" type="line"/>
      <point x="92" y="672" type="line"/>
      <point x="32" y="672" type="line"/>
    </contour>
    <contour>
      <point x="168" y="672" type="line"/>
      <point x="168" y="310" type="line"/>
      <point x="304" y="310" type="line" smooth="yes"/>
      <point x="416" y="310"/>
      <point x="478" y="376"/>
      <point x="478" y="491" type="curve" smooth="yes"/>
      <point x="478" y="600"/>
      <point x="419" y="672"/>
      <point x="322" y="672" type="curve" smooth="yes"/>
    </contour>
  </outline>
</glyph>
<glyph name="Q" format="2">
  <advance width="650"/>
  <unicode hex="0051"/>
  <outline>
    <contour>
      <point x="328" y="716" type="curve" smooth="yes"/>
      <point x="522" y="716"/>
      <point x="602" y="553"/>
      <point x="602" y="359" type="curve" smooth="yes"/>
      <point x="602" y="179.7578125"/>
      <point x="533.8614501953125" y="16.903369903564453"/>
      <point x="367.9461975097656" y="-5.403651237487793" type="curve"/>
      <point x="609" y="-69" type="line"/>
      <point x="595" y="-142" type="line"/>
      <point x="268" y="-8" type="line" smooth="yes"/>
      <point x="89" y="65"/>
      <point x="48" y="182.3571014404297"/>
      <point x="48" y="356" type="curve" smooth="yes"/>
      <point x="48" y="552"/>
      <point x="127" y="716"/>
    </contour>
    <contour>
      <point x="328" y="672" type="curve" smooth="yes"/>
      <point x="195" y="672"/>
      <point x="128" y="553"/>
      <point x="128" y="356" type="curve" smooth="yes"/>
      <point x="128" y="156"/>
      <point x="195" y="36"/>
      <point x="328" y="36" type="curve" smooth="yes"/>
      <point x="461" y="36"/>
      <point x="522" y="156"/>
      <point x="522" y="356" type="curve" smooth="yes"/>
      <point x="522" y="553"/>
      <point x="461" y="672"/>
    </contour>
  </outline>
</glyph>
<glyph name="R" format="2">
  <advance width="641"/>
  <unicode hex="0052"/>
  <outline>
    <contour>
      <point x="38" y="708" type="line"/>
      <point x="353" y="708" type="line" smooth="yes"/>
      <point x="497" y="708"/>
      <point x="578" y="634"/>
      <point x="578" y="502" type="curve" smooth="yes"/>
      <point x="578" y="394"/>
      <point x="510" y="318"/>
      <point x="411" y="291" type="curve"/>
      <point x="573" y="56" type="line"/>
      <point x="633" y="56" type="line"/>
      <point x="633" y="0" type="line"/>
      <point x="539" y="0" type="line"/>
      <point x="490" y="39" type="line"/>
      <point x="334" y="282" type="line"/>
      <point x="192" y="282" type="line"/>
      <point x="192" y="56" type="line"/>
      <point x="269" y="56" type="line"/>
      <point x="269" y="0" type="line"/>
      <point x="38" y="0" type="line"/>
      <point x="38" y="56" type="line"/>
      <point x="112" y="56" type="line"/>
      <point x="112" y="652" type="line"/>
      <point x="38" y="652" type="line"/>
    </contour>
    <contour>
      <point x="192" y="338" type="line"/>
      <point x="334" y="338" type="line" smooth="yes"/>
      <point x="446" y="338"/>
      <point x="498" y="381"/>
      <point x="498" y="504" type="curve" smooth="yes"/>
      <point x="498" y="617"/>
      <point x="450" y="652"/>
      <point x="353" y="652" type="curve" smooth="yes"/>
      <point x="192" y="652" type="line"/>
    </contour>
  </outline>
</glyph>
<glyph name="S" format="2">
  <advance width="616"/>
  <unicode hex="0053"/>
  <outline>
    <contour>
      <point x="337" y="716" type="curve" smooth="yes"/>
      <point x="416" y="716"/>
      <point x="489" y="688"/>
      <point x="556" y="633" type="curve"/>
      <point x="543" y="553" type="line" smooth="yes"/>
      <point x="540" y="537"/>
      <point x="531" y="530"/>
      <point x="517" y="530" type="curve" smooth="yes"/>
      <point x="504" y="530" type="line"/>
      <point x="493" y="631" type="line"/>
      <point x="444" y="663"/>
      <point x="392" y="680"/>
      <point x="336" y="680" type="curve" smooth="yes"/>
      <point x="246" y="680"/>
      <point x="168" y="628"/>
      <point x="168" y="542" type="curve" smooth="yes"/>
      <point x="168" y="460"/>
      <point x="190" y="421"/>
      <point x="311" y="394" type="curve" smooth="yes"/>
      <point x="395" y="375" type="line" smooth="yes"/>
      <point x="510" y="349"/>
      <point x="568" y="285"/>
      <point x="568" y="184" type="curve" smooth="yes"/>
      <point x="568" y="76"/>
      <point x="476" y="-8"/>
      <point x="318" y="-8" type="curve" smooth="yes"/>
      <point x="226" y="-8"/>
      <point x="141" y="11"/>
      <point x="48" y="77" type="curve"/>
      <point x="61" y="157" type="line" smooth="yes"/>
      <point x="64" y="173"/>
      <point x="73" y="180"/>
      <point x="87" y="180" type="curve" smooth="yes"/>
      <point x="100" y="180" type="line"/>
      <point x="111" y="86" type="line"/>
      <point x="184" y="38"/>
      <point x="252" y="28"/>
      <point x="322" y="28" type="curve" smooth="yes"/>
      <point x="427" y="28"/>
      <point x="490" y="87"/>
      <point x="490" y="175" type="curve" smooth="yes"/>
      <point x="490" y="253"/>
      <point x="446" y="294"/>
      <point x="338" y="318" type="curve" smooth="yes"/>
      <point x="261" y="335" type="line" smooth="yes"/>
      <point x="140" y="362"/>
      <point x="88" y="424"/>
      <point x="88" y="527" type="curve" smooth="yes"/>
      <point x="88" y="632"/>
      <point x="180" y="716"/>
    </contour>
  </outline>
</glyph>
<glyph name="T" format="2">
  <advance width="622"/>
  <unicode hex="0054"/>
  <outline>
    <contour>
      <point x="38" y="708" type="line"/>
      <point x="584" y="708" type="line"/>
      <point x="584" y="549" type="line"/>
      <point x="548" y="549" type="line"/>
      <point x="528" y="652" type="line"/>
      <point x="355" y="652" type="line"/>
      <point x="355" y="56" type="line"/>
      <point x="429" y="43" type="line"/>
      <point x="429" y="0" type="line"/>
      <point x="201" y="0" type="line"/>
      <point x="201" y="43" type="line"/>
      <point x="275" y="56" type="line"/>
      <point x="275" y="652" type="line"/>
      <point x="94" y="652" type="line"/>
      <point x="68" y="549" type="line"/>
      <point x="38" y="549" type="line"/>
    </contour>
  </outline>
</glyph>
<glyph name="U" format="2">
  <advance width="667"/>
  <unicode hex="0055"/>
  <anchor x="278.8" y="880" name="AccentCenter"/>
  <outline>
    <contour>
      <point x="36" y="708" type="line"/>
      <point x="263" y="708" type="line"/>
      <point x="263" y="652" type="line"/>
      <point x="189" y="652" type="line"/>
      <point x="189" y="228" type="line" smooth="yes"/>
      <point x="189" y="91"/>
      <point x="243" y="46"/>
      <point x="345" y="46" type="curve" smooth="yes"/>
      <point x="446" y="46"/>
      <point x="505" y="92"/>
      <point x="505" y="229" type="curve" smooth="yes"/>
      <point x="505" y="653" type="line"/>
      <point x="435" y="653" type="line"/>
      <point x="435" y="708" type="line"/>
      <point x="631" y="708" type="line"/>
      <point x="631" y="653" type="line"/>
      <point x="561" y="653" type="line"/>
      <point x="561" y="229" type="line" smooth="yes"/>
      <point x="561" y="70"/>
      <point x="465" y="-6"/>
      <point x="336" y="-6" type="curve" smooth="yes"/>
      <point x="206" y="-6"/>
      <point x="110" y="68"/>
      <point x="110" y="229" type="curve" smooth="yes"/>
      <point x="110" y="653" type="line"/>
      <point x="36" y="653" type="line"/>
    </contour>
  </outline>
</glyph>
<glyph name="V" format="2">
  <advance width="678"/>
  <unicode hex="0056"/>
  <outline>
    <contour>
      <point x="4" y="708" type="line"/>
      <point x="212" y="708" type="line"/>
      <point x="212" y="652" type="line"/>
      <point x="149" y="652" type="line"/>
      <point x="370" y="45" type="line"/>
      <point x="567" y="652" type="line"/>
      <point x="502" y="652" type="line"/>
      <point x="502" y="708" type="line"/>
      <point x="674" y="708" type="line"/>
      <point x="674" y="652" type="line"/>
      <point x="626" y="652" type="line"/>
      <point x="414" y="0" type="line"/>
      <point x="296" y="0" type="line"/>
      <point x="65" y="652" type="line"/>
      <point x="4" y="652" type="line"/>
    </contour>
  </outline>
</glyph>
<glyph name="W" format="2">
  <advance width="932"/>
  <unicode hex="0057"/>
  <outline>
    <contour>
      <point x="12" y="708" type="line"/>
      <point x="220" y="708" type="line"/>
      <point x="220" y="652" type="line"/>
      <point x="157" y="652" type="line"/>
      <point x="303" y="49" type="line"/>
      <point x="469" y="708" type="line"/>
      <point x="514" y="708" type="line"/>
      <point x="691" y="49" type="line"/>
      <point x="807" y="652" type="line"/>
      <point x="752" y="652" type="line"/>
      <point x="752" y="708" type="line"/>
      <point x="920" y="708" type="line"/>
      <point x="920" y="652" type="line"/>
      <point x="868" y="652" type="line"/>
      <point x="741" y="0" type="line"/>
      <point x="617" y="0" type="line"/>
      <point x="480" y="548" type="line"/>
      <point x="353" y="0" type="line"/>
      <point x="229" y="0" type="line"/>
      <point x="73" y="652" type="line"/>
      <point x="12" y="652" type="line"/>
    </contour>
  </outline>
</glyph>
<glyph name="Y" format="2">
  <advance width="619"/>
  <unicode hex="0059"/>
  <anchor x="318" y="880" name="AccentCenter"/>
  <outline>
    <contour>
      <point x="7" y="708" type="line"/>
      <point x="230" y="708" type="line"/>
      <point x="230" y="652" type="line"/>
      <point x="172" y="652" type="line"/>
      <point x="321" y="377" type="line"/>
      <point x="492" y="652" type="line"/>
      <point x="430" y="652" type="line"/>
      <point x="430" y="708" type="line"/>
      <point x="612" y="708" type="line"/>
      <point x="612" y="652" type="line"/>
      <point x="557" y="652" type="line"/>
      <point x="349" y="308" type="line"/>
      <point x="349" y="56" type="line"/>
      <point x="413" y="56" type="line"/>
      <point x="413" y="0" type="line"/>
      <point x="205" y="0" type="line"/>
      <point x="205" y="56" type="line"/>
      <point x="269" y="56" type="line"/>
      <point x="269" y="299" type="line"/>
      <point x="73" y="652" type="line"/>
      <point x="7" y="652" type="line"/>
    </contour>
  </outline>
</glyph>
<glyph name="a" format="2">
  <advance width="538"/>
  <unicode hex="0061"/>
  <anchor x="267" y="687" name="AccentCenter"/>
  <anchor x="257" y="687" name="Ring"/>
  <outline>
    <contour>
      <point x="355" y="256" type="line"/>
      <point x="257" y="256" type="line" smooth="yes"/>
      <point x="157" y="256"/>
      <point x="120" y="217"/>
      <point x="120" y="151" type="curve" smooth="yes"/>
      <point x="120" y="90"/>
      <point x="154" y="51"/>
      <point x="220" y="51" type="curve" smooth="yes"/>
      <point x="288" y="51"/>
      <point x="331" y="85"/>
      <point x="355" y="114" type="curve"/>
    </contour>
    <contour>
      <point x="254" y="528" type="curve" smooth="yes"/>
      <point x="364" y="528"/>
      <point x="435" y="460"/>
      <point x="435" y="331" type="curve" smooth="yes"/>
      <point x="435" y="47" type="line"/>
      <point x="515" y="61" type="line"/>
      <point x="522" y="5" type="line"/>
      <point x="435" y="-8" type="line"/>
      <point x="378" y="-8"/>
      <point x="353" y="22"/>
      <point x="355" y="69" type="curve"/>
      <point x="327" y="30"/>
      <point x="279" y="-8"/>
      <point x="206" y="-8" type="curve" smooth="yes"/>
      <point x="117" y="-8"/>
      <point x="40" y="49"/>
      <point x="40" y="152" type="curve" smooth="yes"/>
      <point x="40" y="252"/>
      <point x="112" y="310"/>
      <point x="260" y="310" type="curve" smooth="yes"/>
      <point x="355" y="310" type="line"/>
      <point x="355" y="345" type="line" smooth="yes"/>
      <point x="355" y="420"/>
      <point x="323" y="469"/>
      <point x="235" y="469" type="curve" smooth="yes"/>
      <point x="181" y="469"/>
      <point x="130" y="449"/>
      <point x="84" y="426" type="curve"/>
      <point x="66" y="482" type="line"/>
      <point x="131" y="517"/>
      <point x="185" y="528"/>
    </contour>
  </outline>
</glyph>
<glyph name="b" format="2">
  <advance width="611"/>
  <unicode hex="0062"/>
  <outline>
    <contour>
      <point x="35" y="708" type="line"/>
      <point x="179" y="708" type="line"/>
      <point x="179" y="438" type="line"/>
      <point x="215" y="497"/>
      <point x="269" y="528"/>
      <point x="340" y="528" type="curve" smooth="yes"/>
      <point x="485" y="528"/>
      <point x="563" y="437"/>
      <point x="563" y="269" type="curve" smooth="yes"/>
      <point x="563" y="89"/>
      <point x="485" y="-8"/>
      <point x="340" y="-8" type="curve" smooth="yes"/>
      <point x="249" y="-8"/>
      <point x="206" y="26"/>
      <point x="178" y="85" type="curve"/>
      <point x="160" y="0" type="line"/>
      <point x="35" y="0" type="line"/>
      <point x="35" y="56" type="line"/>
      <point x="99" y="56" type="line"/>
      <point x="99" y="652" type="line"/>
      <point x="35" y="652" type="line"/>
    </contour>
    <contour>
      <point x="332" y="472" type="curve" smooth="yes"/>
      <point x="245" y="472"/>
      <point x="206" y="420"/>
      <point x="179" y="383" type="curve"/>
      <point x="179" y="138" type="line"/>
      <point x="209" y="92"/>
      <point x="247" y="48"/>
      <point x="332" y="48" type="curve" smooth="yes"/>
      <point x="433" y="48"/>
      <point x="483" y="126"/>
      <point x="483" y="267" type="curve" smooth="yes"/>
      <point x="483" y="403"/>
      <point x="436" y="472"/>
    </contour>
  </outline>
</glyph>
<glyph name="c" format="2">
  <advance width="511"/>
  <unicode hex="0063"/>
  <outline>
    <contour>
      <point x="278" y="528" type="curve" smooth="yes"/>
      <point x="348" y="528"/>
      <point x="398" y="514"/>
      <point x="452" y="470" type="curve"/>
      <point x="432" y="334" type="line"/>
      <point x="360" y="345" type="line"/>
      <point x="377" y="461" type="line"/>
      <point x="348" y="472"/>
      <point x="321" y="476"/>
      <point x="288" y="476" type="curve" smooth="yes"/>
      <point x="188" y="476"/>
      <point x="123" y="410"/>
      <point x="123" y="260" type="curve" smooth="yes"/>
      <point x="123" y="108"/>
      <point x="194" y="44"/>
      <point x="304" y="44" type="curve" smooth="yes"/>
      <point x="358" y="44"/>
      <point x="398" y="62"/>
      <point x="450" y="90" type="curve"/>
      <point x="455" y="40" type="line"/>
      <point x="396" y="10"/>
      <point x="347" y="-8"/>
      <point x="281" y="-8" type="curve" smooth="yes"/>
      <point x="121" y="-8"/>
      <point x="40" y="107"/>
      <point x="40" y="260" type="curve" smooth="yes"/>
      <point x="40" y="418"/>
      <point x="134" y="528"/>
    </contour>
  </outline>
</glyph>
<glyph name="d" format="2">
  <advance width="604"/>
  <unicode hex="0064"/>
  <outline>
    <contour>
      <point x="338" y="708" type="line"/>
      <point x="335" y="656" type="line"/>
      <point x="420" y="656" type="line"/>
      <point x="420" y="480" type="line"/>
      <point x="393" y="504"/>
      <point x="353" y="528"/>
      <point x="282" y="528" type="curve" smooth="yes"/>
      <point x="149" y="528"/>
      <point x="64" y="437"/>
      <point x="64" y="269" type="curve" smooth="yes"/>
      <point x="64" y="89"/>
      <point x="140" y="-8"/>
      <point x="273" y="-8" type="curve" smooth="yes"/>
      <point x="344" y="-8"/>
      <point x="394" y="32"/>
      <point x="422" y="91" type="curve"/>
      <point x="439" y="0" type="line"/>
      <point x="572" y="0" type="line"/>
      <point x="572" y="52" type="line"/>
      <point x="500" y="52" type="line"/>
      <point x="500" y="708" type="line"/>
    </contour>
    <contour>
      <point x="301" y="476" type="curve" smooth="yes"/>
      <point x="356" y="476"/>
      <point x="391" y="462"/>
      <point x="420" y="439" type="curve"/>
      <point x="420" y="131" type="line"/>
      <point x="395" y="92"/>
      <point x="363" y="52"/>
      <point x="288" y="52" type="curve" smooth="yes"/>
      <point x="187" y="52"/>
      <point x="144" y="126"/>
      <point x="144" y="267" type="curve" smooth="yes"/>
      <point x="144" y="403"/>
      <point x="203" y="476"/>
    </contour>
  </outline>
</glyph>
<glyph name="e" format="2">
  <advance width="518"/>
  <unicode hex="0065"/>
  <anchor x="258" y="687" name="AccentCenter"/>
  <outline>
    <contour>
      <point x="271" y="528" type="curve" smooth="yes"/>
      <point x="387" y="528"/>
      <point x="478" y="460"/>
      <point x="478" y="314" type="curve" smooth="yes"/>
      <point x="478" y="296"/>
      <point x="476" y="266"/>
      <point x="474" y="255" type="curve"/>
      <point x="122" y="255" type="line"/>
      <point x="122" y="124"/>
      <point x="191" y="47"/>
      <point x="312" y="47" type="curve" smooth="yes"/>
      <point x="375" y="47"/>
      <point x="425" y="69"/>
      <point x="460" y="87" type="curve"/>
      <point x="472" y="36" type="line"/>
      <point x="423" y="12"/>
      <point x="373" y="-8"/>
      <point x="292" y="-8" type="curve" smooth="yes"/>
      <point x="138" y="-8"/>
      <point x="40" y="105"/>
      <point x="40" y="261" type="curve" smooth="yes"/>
      <point x="40" y="436"/>
      <point x="133" y="528"/>
    </contour>
    <contour>
      <point x="266" y="478" type="curve" smooth="yes"/>
      <point x="191" y="478"/>
      <point x="120" y="435"/>
      <point x="120" y="302" type="curve"/>
      <point x="403" y="302" type="line"/>
      <point x="403" y="318" type="line" smooth="yes"/>
      <point x="403" y="427"/>
      <point x="339" y="478"/>
    </contour>
  </outline>
</glyph>
<glyph name="f" format="2">
  <advance width="342"/>
  <unicode hex="0066"/>
  <outline>
    <contour>
      <point x="365" y="672" type="curve"/>
      <point x="379" y="719" type="line"/>
      <point x="354" y="728"/>
      <point x="330" y="732"/>
      <point x="302" y="732" type="curve" smooth="yes"/>
      <point x="188" y="732"/>
      <point x="129" y="661"/>
      <point x="129" y="564" type="curve" smooth="yes"/>
      <point x="129" y="520" type="line"/>
      <point x="29" y="494" type="line"/>
      <point x="29" y="464" type="line"/>
      <point x="129" y="464" type="line"/>
      <point x="129" y="56" type="line"/>
      <point x="51" y="56" type="line"/>
      <point x="51" y="0" type="line"/>
      <point x="292" y="0" type="line"/>
      <point x="292" y="56" type="line"/>
      <point x="209" y="56" type="line"/>
      <point x="209" y="464" type="line"/>
      <point x="329" y="464" type="line"/>
      <point x="329" y="520" type="line"/>
      <point x="209" y="520" type="line"/>
      <point x="209" y="574" type="line" smooth="yes"/>
      <point x="209" y="632"/>
      <point x="242" y="682"/>
      <point x="308" y="682" type="curve"/>
      <point x="332" y="682"/>
      <point x="349" y="679"/>
    </contour>
  </outline>
</glyph>
<glyph name="g" format="2">
  <advance width="552"/>
  <unicode hex="0067"/>
  <outline>
    <contour>
      <point x="163" y="48" type="line"/>
      <point x="58" y="-107" type="line"/>
      <point x="114" y="-142"/>
      <point x="198" y="-164"/>
      <point x="286" y="-164" type="curve" smooth="yes"/>
      <point x="382" y="-164"/>
      <point x="437" y="-117"/>
      <point x="437" y="-56" type="curve" smooth="yes"/>
      <point x="437" y="-8"/>
      <point x="410" y="24"/>
      <point x="358" y="29" type="curve" smooth="yes"/>
    </contour>
    <contour>
      <point x="241" y="496" type="curve" smooth="yes"/>
      <point x="173" y="496"/>
      <point x="127" y="452"/>
      <point x="127" y="359" type="curve" smooth="yes"/>
      <point x="127" y="268"/>
      <point x="168" y="222"/>
      <point x="241" y="222" type="curve" smooth="yes"/>
      <point x="313" y="222"/>
      <point x="351" y="268"/>
      <point x="351" y="359" type="curve" smooth="yes"/>
      <point x="351" y="451"/>
      <point x="309" y="496"/>
    </contour>
    <contour>
      <point x="241" y="528" type="curve" smooth="yes"/>
      <point x="298" y="528"/>
      <point x="383" y="510"/>
      <point x="414" y="438" type="curve"/>
      <point x="414" y="492"/>
      <point x="437" y="528"/>
      <point x="483" y="528" type="curve" smooth="yes"/>
      <point x="507" y="528"/>
      <point x="517" y="524"/>
      <point x="530" y="518" type="curve" smooth="yes"/>
      <point x="560" y="504" type="line"/>
      <point x="541" y="444" type="line"/>
      <point x="515" y="456" type="line" smooth="yes"/>
      <point x="500" y="463"/>
      <point x="491" y="465"/>
      <point x="473" y="465" type="curve" smooth="yes"/>
      <point x="445" y="465"/>
      <point x="431" y="445"/>
      <point x="431" y="422" type="curve"/>
      <point x="431" y="359" type="line" smooth="yes"/>
      <point x="431" y="254"/>
      <point x="359" y="190"/>
      <point x="241" y="190" type="curve" smooth="yes"/>
      <point x="200" y="190"/>
      <point x="164" y="198"/>
      <point x="164" y="198" type="curve"/>
      <point x="92" y="122" type="line"/>
      <point x="367" y="96" type="line" smooth="yes"/>
      <point x="456" y="88"/>
      <point x="517" y="45"/>
      <point x="517" y="-35" type="curve" smooth="yes"/>
      <point x="517" y="-126"/>
      <point x="439" y="-192"/>
      <point x="284" y="-192" type="curve" smooth="yes"/>
      <point x="177" y="-192"/>
      <point x="114" y="-169"/>
      <point x="37" y="-125" type="curve"/>
      <point x="37" y="-96" type="line"/>
      <point x="137" y="51" type="line"/>
      <point x="56" y="60" type="line"/>
      <point x="56" y="114" type="line"/>
      <point x="141" y="207" type="line"/>
      <point x="77" y="237"/>
      <point x="47" y="291"/>
      <point x="47" y="359" type="curve" smooth="yes"/>
      <point x="47" y="461"/>
      <point x="133" y="528"/>
    </contour>
  </outline>
</glyph>
<glyph name="h" format="2">
  <advance width="609"/>
  <unicode hex="0068"/>
  <outline>
    <contour>
      <point x="57" y="689" type="line"/>
      <point x="203" y="716" type="line"/>
      <point x="203" y="440" type="line"/>
      <point x="237" y="495"/>
      <point x="301" y="528"/>
      <point x="373" y="528" type="curve" smooth="yes"/>
      <point x="476" y="528"/>
      <point x="529" y="459"/>
      <point x="529" y="329" type="curve" smooth="yes"/>
      <point x="529" y="56" type="line"/>
      <point x="593" y="56" type="line"/>
      <point x="593" y="0" type="line"/>
      <point x="385" y="0" type="line"/>
      <point x="385" y="56" type="line"/>
      <point x="449" y="56" type="line"/>
      <point x="449" y="334" type="line" smooth="yes"/>
      <point x="449" y="445"/>
      <point x="398" y="471"/>
      <point x="341" y="471" type="curve" smooth="yes"/>
      <point x="280" y="471"/>
      <point x="237" y="441"/>
      <point x="203" y="388" type="curve"/>
      <point x="203" y="0" type="line"/>
      <point x="48" y="0" type="line"/>
      <point x="48" y="56" type="line"/>
      <point x="123" y="56" type="line"/>
      <point x="123" y="651" type="line"/>
      <point x="57" y="638" type="line"/>
    </contour>
  </outline>
</glyph>
<glyph name="i" format="2">
  <advance width="292"/>
  <unicode hex="0069"/>
  <outline>
    <contour>
      <point x="139" y="739" type="curve" smooth="yes"/>
      <point x="170" y="739"/>
      <point x="193" y="715"/>
      <point x="193" y="683" type="curve" smooth="yes"/>
      <point x="193" y="652"/>
      <point x="170" y="629"/>
      <point x="139" y="629" type="curve" smooth="yes"/>
      <point x="107" y="629"/>
      <point x="83" y="652"/>
      <point x="83" y="683" type="curve" smooth="yes"/>
      <point x="83" y="715"/>
      <point x="107" y="739"/>
    </contour>
    <component base="dotlessi"/>
  </outline>
</glyph>
<glyph name="j" format="2">
  <advance width="301"/>
  <unicode hex="006A"/>
  <outline>
    <contour>
      <point x="66" y="520" type="line"/>
      <point x="220" y="520" type="line"/>
      <point x="220" y="-34" type="line" smooth="yes"/>
      <point x="220" y="-58"/>
      <point x="213" y="-192"/>
      <point x="52" y="-192" type="curve" smooth="yes"/>
      <point x="43" y="-192" type="line"/>
      <point x="43" y="-139" type="line"/>
      <point x="52" y="-139" type="line" smooth="yes"/>
      <point x="81" y="-139"/>
      <point x="140" y="-118"/>
      <point x="140" y="-34" type="curve" smooth="yes"/>
      <point x="140" y="464" type="line"/>
      <point x="66" y="464" type="line"/>
    </contour>
    <contour>
      <point x="181" y="739" type="curve" smooth="yes"/>
      <point x="213" y="739"/>
      <point x="237" y="713"/>
      <point x="237" y="684" type="curve" smooth="yes"/>
      <point x="237" y="655"/>
      <point x="213" y="629"/>
      <point x="181" y="629" type="curve" smooth="yes"/>
      <point x="152" y="629"/>
      <point x="127" y="652"/>
      <point x="127" y="684" type="curve" smooth="yes"/>
      <point x="127" y="716"/>
      <point x="152" y="739"/>
    </contour>
  </outline>
</glyph>
<glyph name="k" format="2">
  <advance width="552"/>
  <unicode hex="006B"/>
  <outline>
    <contour>
      <point x="35" y="708" type="line"/>
      <point x="179" y="708" type="line"/>
      <point x="179" y="273" type="line"/>
      <point x="377" y="464" type="line"/>
      <point x="321" y="464" type="line"/>
      <point x="321" y="520" type="line"/>
      <point x="514" y="520" type="line"/>
      <point x="514" y="464" type="line"/>
      <point x="457" y="464" type="line"/>
      <point x="268" y="285" type="line"/>
      <point x="470" y="56" type="line"/>
      <point x="538" y="56" type="line"/>
      <point x="538" y="0" type="line"/>
      <point x="407" y="0" type="line"/>
      <point x="182" y="265" type="line"/>
      <point x="179" y="265" type="line"/>
      <point x="179" y="56" type="line"/>
      <point x="253" y="56" type="line"/>
      <point x="253" y="0" type="line"/>
      <point x="35" y="0" type="line"/>
      <point x="35" y="56" type="line"/>
      <point x="99" y="56" type="line"/>
      <point x="99" y="652" type="line"/>
      <point x="35" y="652" type="line"/>
    </contour>
  </outline>
</glyph>
<glyph name="l" format="2">
  <advance width="268"/>
  <unicode hex="006C"/>
  <outline>
    <contour>
      <point x="20" y="772" type="line"/>
      <point x="174" y="772" type="line"/>
      <point x="174" y="56" type="line"/>
      <point x="248" y="56" type="line"/>
      <point x="248" y="0" type="line"/>
      <point x="20" y="0" type="line"/>
      <point x="20" y="56" type="line"/>
      <point x="94" y="56" type="line"/>
      <point x="94" y="716" type="line"/>
      <point x="20" y="716" type="line"/>
    </contour>
  </outline>
</glyph>
<glyph name="m" format="2">
  <advance width="829"/>
  <unicode hex="006D"/>
  <outline>
    <contour>
      <point x="32" y="501" type="line"/>
      <point x="168" y="528" type="line"/>
      <point x="176" y="434" type="line"/>
      <point x="200" y="492"/>
      <point x="250" y="528"/>
      <point x="323" y="528" type="curve" smooth="yes"/>
      <point x="390" y="528"/>
      <point x="427" y="505"/>
      <point x="450" y="433" type="curve"/>
      <point x="476" y="485"/>
      <point x="545" y="528"/>
      <point x="612" y="528" type="curve" smooth="yes"/>
      <point x="715" y="528"/>
      <point x="761" y="459"/>
      <point x="761" y="329" type="curve" smooth="yes"/>
      <point x="761" y="56" type="line"/>
      <point x="825" y="56" type="line"/>
      <point x="825" y="0" type="line"/>
      <point x="681" y="0" type="line"/>
      <point x="681" y="345" type="line" smooth="yes"/>
      <point x="681" y="456"/>
      <point x="635" y="472"/>
      <point x="589" y="472" type="curve" smooth="yes"/>
      <point x="532" y="472"/>
      <point x="485" y="420"/>
      <point x="467" y="379" type="curve"/>
      <point x="467" y="56" type="line"/>
      <point x="531" y="56" type="line"/>
      <point x="531" y="0" type="line"/>
      <point x="387" y="0" type="line"/>
      <point x="387" y="345" type="line" smooth="yes"/>
      <point x="387" y="456"/>
      <point x="346" y="472"/>
      <point x="300" y="472" type="curve" smooth="yes"/>
      <point x="240" y="472"/>
      <point x="198" y="425"/>
      <point x="176" y="370" type="curve"/>
      <point x="176" y="56" type="line"/>
      <point x="240" y="56" type="line"/>
      <point x="240" y="0" type="line"/>
      <point x="32" y="0" type="line"/>
      <point x="32" y="56" type="line"/>
      <point x="96" y="56" type="line"/>
      <point x="96" y="465" type="line"/>
      <point x="32" y="465" type="line"/>
    </contour>
  </outline>
</glyph>
<glyph name="n" format="2">
  <advance width="570"/>
  <unicode hex="006E"/>
  <anchor x="290.4" y="687" name="AccentCenter"/>
  <outline>
    <contour>
      <point x="40" y="501" type="line"/>
      <point x="176" y="528" type="line"/>
      <point x="184" y="439" type="line"/>
      <point x="215" y="495"/>
      <point x="278" y="528"/>
      <point x="350" y="528" type="curve" smooth="yes"/>
      <point x="453" y="528"/>
      <point x="499" y="459"/>
      <point x="499" y="329" type="curve" smooth="yes"/>
      <point x="499" y="56" type="line"/>
      <point x="563" y="56" type="line"/>
      <point x="563" y="0" type="line"/>
      <point x="419" y="0" type="line"/>
      <point x="419" y="345" type="line" smooth="yes"/>
      <point x="419" y="456"/>
      <point x="368" y="472"/>
      <point x="322" y="472" type="curve" smooth="yes"/>
      <point x="263" y="472"/>
      <point x="206" y="426"/>
      <point x="184" y="371" type="curve"/>
      <point x="184" y="56" type="line"/>
      <point x="248" y="56" type="line"/>
      <point x="248" y="0" type="line"/>
      <point x="40" y="0" type="line"/>
      <point x="40" y="56" type="line"/>
      <point x="104" y="56" type="line"/>
      <point x="104" y="457" type="line"/>
      <point x="40" y="457" type="line"/>
    </contour>
  </outline>
</glyph>
<glyph name="o" format="2">
  <advance width="580"/>
  <unicode hex="006F"/>
  <anchor x="283" y="687" name="AccentCenter"/>
  <outline>
    <contour>
      <point x="290" y="472" type="curve" smooth="yes"/>
      <point x="190" y="472"/>
      <point x="135" y="398"/>
      <point x="135" y="258" type="curve" smooth="yes"/>
      <point x="135" y="119"/>
      <point x="188" y="48"/>
      <point x="288" y="48" type="curve" smooth="yes"/>
      <point x="389" y="48"/>
      <point x="444" y="121"/>
      <point x="444" y="260" type="curve" smooth="yes"/>
      <point x="444" y="399"/>
      <point x="389" y="472"/>
    </contour>
    <contour>
      <point x="290" y="528" type="curve" smooth="yes"/>
      <point x="435" y="528"/>
      <point x="524" y="425"/>
      <point x="524" y="257" type="curve" smooth="yes"/>
      <point x="524" y="98"/>
      <point x="429" y="-8"/>
      <point x="288" y="-8" type="curve" smooth="yes"/>
      <point x="147" y="-8"/>
      <point x="56" y="96"/>
      <point x="56" y="259" type="curve" smooth="yes"/>
      <point x="56" y="426"/>
      <point x="145" y="528"/>
    </contour>
  </outline>
</glyph>
<glyph name="p" format="2">
  <advance width="612"/>
  <unicode hex="0070"/>
  <outline>
    <contour>
      <point x="44" y="520" type="line"/>
      <point x="161" y="520" type="line"/>
      <point x="178" y="434" type="line"/>
      <point x="206" y="493"/>
      <point x="261" y="528"/>
      <point x="341" y="528" type="curve" smooth="yes"/>
      <point x="486" y="528"/>
      <point x="564" y="431"/>
      <point x="564" y="251" type="curve" smooth="yes"/>
      <point x="564" y="83"/>
      <point x="476" y="-8"/>
      <point x="331" y="-8" type="curve" smooth="yes"/>
      <point x="260" y="-8"/>
      <point x="216" y="13"/>
      <point x="180" y="72" type="curve"/>
      <point x="180" y="-192" type="line"/>
      <point x="44" y="-192" type="line"/>
      <point x="44" y="-136" type="line"/>
      <point x="100" y="-136" type="line"/>
      <point x="100" y="464" type="line"/>
      <point x="44" y="464" type="line"/>
    </contour>
    <contour>
      <point x="180" y="382" type="curve"/>
      <point x="180" y="137" type="line"/>
      <point x="211" y="84"/>
      <point x="249" y="48"/>
      <point x="323" y="48" type="curve" smooth="yes"/>
      <point x="427" y="48"/>
      <point x="484" y="117"/>
      <point x="484" y="253" type="curve" smooth="yes"/>
      <point x="484" y="394"/>
      <point x="434" y="472"/>
      <point x="333" y="472" type="curve" smooth="yes"/>
      <point x="258" y="472"/>
      <point x="206" y="426"/>
    </contour>
  </outline>
</glyph>
<glyph name="q" format="2">
  <advance width="604"/>
  <unicode hex="0071"/>
  <outline>
    <contour>
      <point x="568" y="520" type="line"/>
      <point x="451" y="520" type="line"/>
      <point x="434" y="434" type="line"/>
      <point x="406" y="493"/>
      <point x="362" y="528"/>
      <point x="271" y="528" type="curve" smooth="yes"/>
      <point x="126" y="528"/>
      <point x="48" y="431"/>
      <point x="48" y="251" type="curve" smooth="yes"/>
      <point x="48" y="83"/>
      <point x="126" y="-8"/>
      <point x="271" y="-8" type="curve" smooth="yes"/>
      <point x="342" y="-8"/>
      <point x="396" y="23"/>
      <point x="432" y="82" type="curve"/>
      <point x="432" y="-192" type="line"/>
      <point x="568" y="-192" type="line"/>
      <point x="568" y="-156" type="line"/>
      <point x="512" y="-156" type="line"/>
      <point x="512" y="484" type="line"/>
      <point x="568" y="484" type="line"/>
    </contour>
    <contour>
      <point x="432" y="382" type="curve"/>
      <point x="432" y="137" type="line"/>
      <point x="413" y="76"/>
      <point x="353" y="36"/>
      <point x="279" y="36" type="curve" smooth="yes"/>
      <point x="175" y="36"/>
      <point x="128" y="117"/>
      <point x="128" y="253" type="curve" smooth="yes"/>
      <point x="128" y="394"/>
      <point x="178" y="484"/>
      <point x="279" y="484" type="curve" smooth="yes"/>
      <point x="364" y="484"/>
      <point x="414" y="431"/>
    </contour>
  </outline>
</glyph>
<glyph name="r" format="2">
  <advance width="395"/>
  <unicode hex="0072"/>
  <outline>
    <contour>
      <point x="179" y="529" type="line"/>
      <point x="198" y="440" type="line"/>
      <point x="220" y="490"/>
      <point x="280" y="529"/>
      <point x="336" y="529" type="curve" smooth="yes"/>
      <point x="354" y="529"/>
      <point x="368" y="527"/>
      <point x="380" y="525" type="curve"/>
      <point x="376" y="462" type="line"/>
      <point x="357" y="462" type="line"/>
      <point x="290" y="462"/>
      <point x="229" y="434"/>
      <point x="198" y="386" type="curve"/>
      <point x="198" y="56" type="line"/>
      <point x="264" y="56" type="line"/>
      <point x="264" y="0" type="line"/>
      <point x="52" y="0" type="line"/>
      <point x="52" y="56" type="line"/>
      <point x="118" y="56" type="line"/>
      <point x="118" y="467" type="line"/>
      <point x="32" y="454" type="line"/>
      <point x="32" y="510" type="line"/>
    </contour>
  </outline>
</glyph>
<glyph name="s" format="2">
  <advance width="483"/>
  <unicode hex="0073"/>
  <outline>
    <contour>
      <point x="251" y="528" type="curve" smooth="yes"/>
      <point x="316" y="528"/>
      <point x="360" y="517"/>
      <point x="424" y="489" type="curve"/>
      <point x="424" y="489"/>
      <point x="416" y="426"/>
      <point x="412" y="400" type="curve" smooth="yes"/>
      <point x="409" y="384"/>
      <point x="400" y="377"/>
      <point x="386" y="377" type="curve" smooth="yes"/>
      <point x="365" y="377" type="line"/>
      <point x="360" y="447" type="line"/>
      <point x="320" y="464"/>
      <point x="299" y="472"/>
      <point x="250" y="472" type="curve" smooth="yes"/>
      <point x="195" y="472"/>
      <point x="138" y="448"/>
      <point x="138" y="394" type="curve" smooth="yes"/>
      <point x="138" y="354"/>
      <point x="159" y="321"/>
      <point x="206" y="311" type="curve" smooth="yes"/>
      <point x="301" y="290" type="line" smooth="yes"/>
      <point x="389" y="271"/>
      <point x="439" y="226"/>
      <point x="439" y="141" type="curve" smooth="yes"/>
      <point x="439" y="44"/>
      <point x="351" y="-8"/>
      <point x="232" y="-8" type="curve" smooth="yes"/>
      <point x="150" y="-8"/>
      <point x="95" y="10"/>
      <point x="35" y="48" type="curve"/>
      <point x="35" y="48"/>
      <point x="43" y="113"/>
      <point x="47" y="139" type="curve" smooth="yes"/>
      <point x="50" y="155"/>
      <point x="59" y="162"/>
      <point x="73" y="162" type="curve" smooth="yes"/>
      <point x="96" y="162" type="line"/>
      <point x="103" y="81" type="line"/>
      <point x="140" y="62"/>
      <point x="176" y="48"/>
      <point x="224" y="48" type="curve" smooth="yes"/>
      <point x="316" y="48"/>
      <point x="357" y="79"/>
      <point x="357" y="127" type="curve" smooth="yes"/>
      <point x="357" y="178"/>
      <point x="334" y="210"/>
      <point x="274" y="223" type="curve" smooth="yes"/>
      <point x="182" y="243" type="line" smooth="yes"/>
      <point x="137" y="253"/>
      <point x="55" y="282"/>
      <point x="55" y="387" type="curve" smooth="yes"/>
      <point x="55" y="460"/>
      <point x="123" y="528"/>
    </contour>
  </outline>
</glyph>
<glyph name="t" format="2">
  <advance width="370"/>
  <unicode hex="0074"/>
  <outline>
    <contour>
      <point x="122" y="649" type="line"/>
      <point x="200" y="687" type="line"/>
      <point x="200" y="520" type="line"/>
      <point x="338" y="520" type="line"/>
      <point x="338" y="464" type="line"/>
      <point x="200" y="464" type="line"/>
      <point x="200" y="115" type="line" smooth="yes"/>
      <point x="200" y="68"/>
      <point x="227" y="45"/>
      <point x="263" y="45" type="curve"/>
      <point x="272" y="45"/>
      <point x="282" y="46"/>
      <point x="290" y="47" type="curve" smooth="yes"/>
      <point x="337" y="55" type="line"/>
      <point x="346" y="7" type="line"/>
      <point x="308" y="-3"/>
      <point x="282" y="-8"/>
      <point x="261" y="-8" type="curve" smooth="yes"/>
      <point x="174" y="-8"/>
      <point x="122" y="38"/>
      <point x="122" y="121" type="curve" smooth="yes"/>
      <point x="122" y="464" type="line"/>
      <point x="16" y="464" type="line"/>
      <point x="16" y="520" type="line"/>
      <point x="122" y="520" type="line"/>
    </contour>
  </outline>
</glyph>
<glyph name="u" format="2">
  <advance width="594"/>
  <unicode hex="0075"/>
  <anchor x="271" y="687" name="AccentCenter"/>
  <outline>
    <contour>
      <point x="32" y="520" type="line"/>
      <point x="176" y="520" type="line"/>
      <point x="176" y="175" type="line" smooth="yes"/>
      <point x="176" y="74"/>
      <point x="227" y="52"/>
      <point x="273" y="52" type="curve" smooth="yes"/>
      <point x="332" y="52"/>
      <point x="382" y="92"/>
      <point x="418" y="134" type="curve"/>
      <point x="418" y="468" type="line"/>
      <point x="354" y="474" type="line"/>
      <point x="354" y="520" type="line"/>
      <point x="498" y="520" type="line"/>
      <point x="498" y="56" type="line"/>
      <point x="562" y="56" type="line"/>
      <point x="562" y="19" type="line"/>
      <point x="428" y="-9" type="line"/>
      <point x="418" y="86" type="line"/>
      <point x="377" y="27"/>
      <point x="324" y="-8"/>
      <point x="252" y="-8" type="curve" smooth="yes"/>
      <point x="149" y="-8"/>
      <point x="96" y="61"/>
      <point x="96" y="191" type="curve" smooth="yes"/>
      <point x="96" y="468" type="line"/>
      <point x="32" y="474" type="line"/>
    </contour>
  </outline>
</glyph>
<glyph name="v" format="2">
  <advance width="570"/>
  <unicode hex="0076"/>
  <outline>
    <contour>
      <point x="4" y="520" type="line"/>
      <point x="212" y="520" type="line"/>
      <point x="212" y="464" type="line"/>
      <point x="149" y="464" type="line"/>
      <point x="312" y="52" type="line"/>
      <point x="459" y="464" type="line"/>
      <point x="398" y="464" type="line"/>
      <point x="398" y="520" type="line"/>
      <point x="566" y="520" type="line"/>
      <point x="566" y="464" type="line"/>
      <point x="516" y="464" type="line"/>
      <point x="358" y="0" type="line"/>
      <point x="242" y="0" type="line"/>
      <point x="65" y="464" type="line"/>
      <point x="4" y="464" type="line"/>
    </contour>
  </outline>
</glyph>
<glyph name="w" format="2">
  <advance width="868"/>
  <unicode hex="0077"/>
  <outline>
    <contour>
      <point x="4" y="520" type="line"/>
      <point x="212" y="520" type="line"/>
      <point x="212" y="464" type="line"/>
      <point x="149" y="464" type="line"/>
      <point x="271" y="51" type="line"/>
      <point x="401" y="464" type="line"/>
      <point x="348" y="464" type="line"/>
      <point x="348" y="520" type="line"/>
      <point x="551" y="520" type="line"/>
      <point x="551" y="464" type="line"/>
      <point x="497" y="464" type="line"/>
      <point x="619" y="51" type="line"/>
      <point x="749" y="464" type="line"/>
      <point x="696" y="464" type="line"/>
      <point x="696" y="520" type="line"/>
      <point x="864" y="520" type="line"/>
      <point x="864" y="464" type="line"/>
      <point x="812" y="464" type="line"/>
      <point x="671" y="0" type="line"/>
      <point x="557" y="0" type="line"/>
      <point x="443" y="405" type="line"/>
      <point x="323" y="0" type="line"/>
      <point x="209" y="0" type="line"/>
      <point x="65" y="464" type="line"/>
      <point x="4" y="464" type="line"/>
    </contour>
  </outline>
</glyph>
<glyph name="x" format="2">
  <advance width="573"/>
  <unicode hex="0078"/>
  <outline>
    <contour>
      <point x="43" y="520" type="line"/>
      <point x="431" y="0" type="line"/>
      <point x="530" y="0" type="line"/>
      <point x="142" y="520" type="line"/>
    </contour>
    <contour>
      <point x="4" y="520" type="line"/>
      <point x="4" y="476" type="line"/>
      <point x="227" y="476" type="line"/>
      <point x="227" y="520" type="line"/>
    </contour>
    <contour>
      <point x="346" y="44" type="line"/>
      <point x="346" y="0" type="line"/>
      <point x="569" y="0" type="line"/>
      <point x="569" y="44" type="line"/>
    </contour>
    <contour>
      <point x="468" y="520" type="line"/>
      <point x="45" y="0" type="line"/>
      <point x="103" y="0" type="line"/>
      <point x="526" y="520" type="line"/>
    </contour>
    <contour>
      <point x="4" y="44" type="line"/>
      <point x="4" y="0" type="line"/>
      <point x="186" y="0" type="line"/>
      <point x="186" y="44" type="line"/>
    </contour>
    <contour>
      <point x="387" y="520" type="line"/>
      <point x="387" y="476" type="line"/>
      <point x="569" y="476" type="line"/>
      <point x="569" y="520" type="line"/>
    </contour>
  </outline>
</glyph>
<glyph name="y" format="2">
  <advance width="567"/>
  <unicode hex="0079"/>
  <anchor x="293.2" y="687" name="AccentCenter"/>
  <outline>
    <contour>
      <point x="4" y="520" type="line"/>
      <point x="212" y="520" type="line"/>
      <point x="212" y="464" type="line"/>
      <point x="149" y="464" type="line"/>
      <point x="297" y="157" type="line"/>
      <point x="441" y="520" type="line"/>
      <point x="563" y="520" type="line"/>
      <point x="563" y="464" type="line"/>
      <point x="492" y="464" type="line"/>
      <point x="224" y="-192" type="line"/>
      <point x="86" y="-192" type="line"/>
      <point x="86" y="-131" type="line"/>
      <point x="182.86399841308594" y="-131" type="line"/>
      <point x="263" y="58" type="line"/>
      <point x="65" y="464" type="line"/>
      <point x="4" y="464" type="line"/>
    </contour>
  </outline>
</glyph>
<glyph name="z" format="2">
  <advance width="466"/>
  <unicode hex="007A"/>
  <outline>
    <contour>
      <point x="34" y="520" type="line"/>
      <point x="428" y="520" type="line"/>
      <point x="428" y="464" type="line"/>
      <point x="127" y="56" type="line"/>
      <point x="390" y="56" type="line"/>
      <point x="390" y="120" type="line"/>
      <point x="434" y="120" type="line"/>
      <point x="434" y="0" type="line"/>
      <point x="32" y="0" type="line"/>
      <point x="32" y="56" type="line"/>
      <point x="337" y="464" type="line"/>
      <point x="78" y="464" type="line"/>
      <point x="78" y="400" type="line"/>
      <point x="34" y="400" type="line"/>
    </contour>
  </outline>
</glyph>
<glyph name="cent" format="2">
  <advance width="527"/>
  <unicode hex="00A2"/>
  <outline>
    <contour>
      <point x="255" y="520" type="line"/>
      <point x="255" y="618" type="line"/>
      <point x="335" y="618" type="line"/>
      <point x="335" y="520" type="line"/>
    </contour>
    <contour>
      <point x="335" y="0" type="line"/>
      <point x="335" y="-94" type="line"/>
      <point x="255" y="-94" type="line"/>
      <point x="255" y="0" type="line"/>
    </contour>
    <component base="c"/>
  </outline>
</glyph>
<glyph name="sterling" format="2">
  <advance width="601"/>
  <unicode hex="00A3"/>
  <outline>
    <contour>
      <point x="342" y="716" type="curve" smooth="yes"/>
      <point x="410" y="716"/>
      <point x="472" y="696"/>
      <point x="515" y="675" type="curve"/>
      <point x="498" y="614" type="line"/>
      <point x="454" y="638"/>
      <point x="415" y="655"/>
      <point x="351" y="655" type="curve" smooth="yes"/>
      <point x="256" y="655"/>
      <point x="196" y="602"/>
      <point x="196" y="521" type="curve" smooth="yes"/>
      <point x="196" y="463"/>
      <point x="215" y="428"/>
      <point x="232" y="389" type="curve"/>
      <point x="423" y="389" type="line"/>
      <point x="423" y="333" type="line"/>
      <point x="257" y="333" type="line"/>
      <point x="299" y="241" type="line"/>
      <point x="135" y="75" type="line"/>
      <point x="476" y="75" type="line"/>
      <point x="476" y="160" type="line"/>
      <point x="540" y="160" type="line"/>
      <point x="540" y="0" type="line"/>
      <point x="72" y="0" type="line"/>
      <point x="72" y="74" type="line"/>
      <point x="227" y="231" type="line"/>
      <point x="180" y="333" type="line"/>
      <point x="62" y="333" type="line"/>
      <point x="62" y="389" type="line"/>
      <point x="156" y="389" type="line"/>
      <point x="144" y="415"/>
      <point x="120" y="463"/>
      <point x="120" y="531" type="curve" smooth="yes"/>
      <point x="120" y="615"/>
      <point x="170" y="716"/>
    </contour>
  </outline>
</glyph>
<glyph name="oslash" format="2">
  <advance width="580"/>
  <unicode hex="00F8"/>
  <outline>
    <contour>
      <point x="449" y="520" type="line"/>
      <point x="524" y="520" type="line"/>
      <point x="126" y="-1" type="line"/>
      <point x="56" y="-1" type="line"/>
    </contour>
    <component base="o"/>
  </outline>
</glyph>
<glyph name="dotlessi" format="2">
  <advance width="296"/>
  <unicode hex="0131"/>
  <anchor x="135" y="687" name="AccentCenter"/>
  <outline>
    <contour>
      <point x="44" y="520" type="line"/>
      <point x="188" y="520" type="line"/>
      <point x="188" y="56" type="line"/>
      <point x="252" y="56" type="line"/>
      <point x="252" y="0" type="line"/>
      <point x="108" y="0" type="line"/>
      <point x="108" y="464" type="line"/>
      <point x="44" y="464" type="line"/>
    </contour>
  </outline>
</glyph>
